<svg width="27" height="26" viewBox="0 0 27 26" fill="none" xmlns="http://www.w3.org/2000/svg">
<path d="M26.1641 13C26.1641 14.11 24.8041 15 24.5241 16.05C24.2441 17.1 24.9641 18.58 24.4241 19.5C23.8841 20.42 22.2441 20.55 21.4841 21.32C20.7241 22.09 20.6041 23.72 19.6641 24.26C18.7241 24.8 17.2641 24.08 16.2141 24.36C15.1641 24.64 14.2741 26 13.1641 26C12.0541 26 11.1641 24.64 10.1641 24.36C9.16406 24.08 7.63406 24.8 6.71406 24.26C5.79406 23.72 5.66406 22.08 4.89406 21.32C4.12406 20.56 2.49406 20.44 1.95406 19.5C1.41406 18.56 2.13406 17.1 1.85406 16.05C1.57406 15 0.164062 14.11 0.164062 13C0.164062 11.89 1.52406 11 1.80406 10C2.08406 9 1.36406 7.47 1.90406 6.55C2.44406 5.63 4.08406 5.45 4.84406 4.68C5.60406 3.91 5.72406 2.28 6.66406 1.74C7.60406 1.2 9.06406 1.92 10.1141 1.64C11.1641 1.36 12.0541 0 13.1641 0C14.2741 0 15.1641 1.36 16.2141 1.64C17.2641 1.92 18.7441 1.2 19.6641 1.74C20.5841 2.28 20.7141 3.92 21.4841 4.68C22.2541 5.44 23.8841 5.56 24.4241 6.5C24.9641 7.44 24.2441 8.9 24.5241 9.95C24.8041 11 26.1641 11.89 26.1641 13Z" fill="#20BF55"/>
<path d="M13.1641 21.5C17.8585 21.5 21.6641 17.6944 21.6641 13C21.6641 8.30558 17.8585 4.5 13.1641 4.5C8.46964 4.5 4.66406 8.30558 4.66406 13C4.66406 17.6944 8.46964 21.5 13.1641 21.5Z" fill="#20BF55"/>
<path d="M11.7768 18.0012C11.6198 18.0019 11.4643 17.9713 11.3193 17.9111C11.1743 17.8509 11.0428 17.7624 10.9325 17.6507L7.22053 14.0025C6.99677 13.7785 6.87109 13.4748 6.87109 13.1582C6.87109 12.8415 6.99677 12.5378 7.22053 12.3138C7.44456 12.0901 7.74824 11.9644 8.06487 11.9644C8.3815 11.9644 8.68518 12.0901 8.90921 12.3138L11.7768 15.1495L17.4164 9.58961C17.6424 9.36567 17.9482 9.24071 18.2664 9.2422C18.5845 9.24369 18.8891 9.37153 19.113 9.59757C19.337 9.82362 19.4619 10.1294 19.4604 10.4475C19.459 10.7657 19.3311 11.0703 19.1051 11.2942L12.6052 17.6666C12.4977 17.7765 12.3685 17.8629 12.226 17.9205C12.0834 17.9781 11.9305 18.0055 11.7768 18.0012Z" fill="white"/>
</svg>
