<svg width="22" height="24" viewBox="0 0 22 24" fill="none" xmlns="http://www.w3.org/2000/svg">
<path opacity="0.7" d="M18.37 23.1285H3.63C1.65 23.1285 0 21.4132 0 19.3595V11.1218C0 10.0836 0.44 9.06804 1.21 8.36841L8.58 1.50746C10.01 0.243606 11.99 0.243606 13.42 1.50746L20.79 8.36841C21.56 9.04547 22 10.0836 22 11.1218V19.3595C21.89 21.5261 20.35 23.1285 18.37 23.1285ZM11 2.88417C10.67 2.88417 10.34 2.99701 10.01 3.2227L2.64 10.0836C2.31 10.3093 2.2 10.7607 2.2 11.2347V19.4723C2.2 20.2622 2.86 20.9618 3.63 20.9618H18.26C19.03 20.9618 19.69 20.2848 19.69 19.4723V11.2347C19.69 10.7833 19.47 10.4447 19.25 10.0836L11.88 3.2227C11.66 2.99701 11.33 2.88417 11 2.88417Z" fill="white"/>
</svg>
