<svg width="26" height="28" viewBox="0 0 26 28" fill="none" xmlns="http://www.w3.org/2000/svg">
<path d="M23.1194 12.4076C23.1194 14.6412 22.4624 16.7215 21.3308 18.4657L19.5115 15.2829C18.5337 13.572 16.067 13.572 15.0892 15.2829L10.7208 22.9272C10.622 23.0995 10.5464 23.2765 10.492 23.4552C5.0369 22.7305 0.828125 18.0603 0.828125 12.4076C0.828125 6.25168 5.81861 1.26172 11.974 1.26172C18.1294 1.26172 23.1194 6.25168 23.1194 12.4076Z" stroke="#C5718F" stroke-width="1.58562" stroke-miterlimit="10" stroke-linecap="round" stroke-linejoin="round"/>
<path d="M11.9766 6.83496V12.4077L14.763 15.1942" stroke="#C5718F" stroke-width="1.58562" stroke-miterlimit="10" stroke-linecap="round" stroke-linejoin="round"/>
<path d="M21.6694 26.7377H12.9331C11.1763 26.7377 10.0087 25.0326 10.4929 23.4555C10.5473 23.2768 10.6229 23.0998 10.7217 22.9275L15.0901 15.2832C16.0679 13.5723 18.5346 13.5723 19.5124 15.2832L21.3316 18.466L23.8808 22.9275C24.8507 24.6251 23.625 26.7377 21.6694 26.7377Z" stroke="#C5718F" stroke-width="1.58562" stroke-miterlimit="10" stroke-linecap="round" stroke-linejoin="round"/>
<path d="M17.3047 18.7764V20.3686" stroke="#C5718F" stroke-width="1.58562" stroke-miterlimit="10" stroke-linecap="round" stroke-linejoin="round"/>
<path d="M17.3091 24.3464C17.7238 24.3464 18.1211 23.9817 18.1019 23.5536C18.0827 23.124 17.7536 22.7607 17.3091 22.7607C16.8944 22.7607 16.4971 23.1254 16.5163 23.5536C16.5355 23.9831 16.8647 24.3464 17.3091 24.3464Z" fill="#C5718F"/>
<path d="M11.9766 1.26172V2.85395" stroke="#C5718F" stroke-width="1.58562" stroke-miterlimit="10" stroke-linecap="round" stroke-linejoin="round"/>
<path d="M4.09375 4.52637L5.2196 5.65221" stroke="#C5718F" stroke-width="1.58562" stroke-miterlimit="10" stroke-linecap="round" stroke-linejoin="round"/>
<path d="M0.828125 12.4072H2.42036" stroke="#C5718F" stroke-width="1.58562" stroke-miterlimit="10" stroke-linecap="round" stroke-linejoin="round"/>
<path d="M4.09375 20.2889L5.2196 19.1631" stroke="#C5718F" stroke-width="1.58562" stroke-miterlimit="10" stroke-linecap="round" stroke-linejoin="round"/>
<path d="M23.1235 12.4072H21.5312" stroke="#C5718F" stroke-width="1.58562" stroke-miterlimit="10" stroke-linecap="round" stroke-linejoin="round"/>
<path d="M19.8603 4.52637L18.7344 5.65221" stroke="#C5718F" stroke-width="1.58562" stroke-miterlimit="10" stroke-linecap="round" stroke-linejoin="round"/>
</svg>
