<svg width="22" height="22" viewBox="0 0 22 22" fill="none" xmlns="http://www.w3.org/2000/svg">
<path fill-rule="evenodd" clip-rule="evenodd" d="M9.00106 0.181345C9.64993 0.0621557 10.3181 0 11 0C17.0751 0 22 4.92487 22 11C22 17.0751 17.0751 22 11 22C10.3181 22 9.64993 21.9379 9.00106 21.8187C8.50313 21.7272 8.17362 21.2494 8.26508 20.7515C8.35654 20.2536 8.83435 19.924 9.33231 20.0155C9.87241 20.1147 10.4297 20.1667 11 20.1667C16.0626 20.1667 20.1667 16.0626 20.1667 11C20.1667 5.93739 16.0626 1.83333 11 1.83333C10.4297 1.83333 9.87241 1.8853 9.33231 1.98451C8.83435 2.07598 8.35654 1.74647 8.26508 1.24854C8.17362 0.750605 8.50313 0.272807 9.00106 0.181345ZM6.75181 1.80664C7.0053 2.24486 6.85556 2.80561 6.41734 3.05911C5.16682 3.78249 4.10252 4.79317 3.31522 6.00066C3.03871 6.42474 2.47077 6.54438 2.0467 6.26786C1.62261 5.99136 1.50299 5.42342 1.77949 4.99934C2.72349 3.55151 3.99916 2.33997 5.49933 1.47217C5.93755 1.21866 6.49831 1.36842 6.75181 1.80664ZM16.213 7.58381C16.5809 7.93156 16.5973 8.51173 16.2496 8.87966L10.3526 15.1188C9.76708 15.7382 8.79538 15.7382 8.20994 15.1188L5.75048 12.5166C5.40272 12.1487 5.41909 11.5685 5.78701 11.2207C6.15494 10.873 6.73511 10.8894 7.08285 11.2573L9.28125 13.5833L14.9171 7.62034C15.2649 7.25242 15.845 7.23606 16.213 7.58381ZM1.38573 7.81546C1.87885 7.93007 2.1857 8.42272 2.0711 8.91584C1.9157 9.58448 1.83333 10.2821 1.83333 11C1.83333 11.7179 1.9157 12.4155 2.0711 13.0841C2.1857 13.5773 1.87885 14.0699 1.38573 14.1845C0.89261 14.2992 0.399954 13.9923 0.285352 13.4992C0.0985527 12.6954 0 11.8586 0 11C0 10.1414 0.0985527 9.30463 0.285352 8.50083C0.399954 8.00771 0.89261 7.70086 1.38573 7.81546ZM2.0467 15.7321C2.47077 15.4556 3.03871 15.5753 3.31522 15.9993C4.10252 17.2068 5.16682 18.2175 6.41734 18.9409C6.85556 19.1944 7.0053 19.7552 6.75181 20.1933C6.49831 20.6316 5.93755 20.7813 5.49933 20.5278C3.99916 19.66 2.72349 18.4485 1.77949 17.0007C1.50299 16.5765 1.62261 16.0087 2.0467 15.7321Z" fill="#1078C1"/>
</svg>
