<svg width="26" height="26" viewBox="0 0 26 26" fill="none" xmlns="http://www.w3.org/2000/svg">
<path d="M2.85156 8.78237C4.41841 4.26128 8.67788 1.22944 13.4628 1.22944C18.5824 1.22944 23.054 4.69185 24.3357 9.64844" stroke="#FF8F51" stroke-width="1.46484" stroke-miterlimit="22.926" stroke-linecap="round" stroke-linejoin="round"/>
<path d="M1.55469 7.41963L2.4792 9.61035L4.66997 8.68569" stroke="#FF8F51" stroke-width="1.46484" stroke-miterlimit="22.926" stroke-linecap="round" stroke-linejoin="round"/>
<path d="M23.7966 17.2127C22.2298 21.7338 17.9703 24.7656 13.1854 24.7656C8.06577 24.7656 3.59419 21.3032 2.3125 16.3466" stroke="#FF8F51" stroke-width="1.46484" stroke-miterlimit="22.926" stroke-linecap="round" stroke-linejoin="round"/>
<path d="M25.084 18.4287L24.1595 16.238L21.9688 17.1626" stroke="#FF8F51" stroke-width="1.46484" stroke-miterlimit="22.926" stroke-linecap="round" stroke-linejoin="round"/>
<path d="M14.79 7.52563C15.275 7.65518 15.7343 7.84712 16.1588 8.09282L16.4499 7.80176C17.0195 7.23208 17.9518 7.23208 18.5214 7.80176L18.5215 7.80181C19.0912 8.37148 19.0912 9.30371 18.5215 9.87339L18.2304 10.1644C18.4762 10.5888 18.6682 11.0483 18.7977 11.5332H19.209C20.0146 11.5332 20.6738 12.1924 20.6738 12.998C20.6738 13.8038 20.0146 14.4629 19.209 14.4629H18.7977C18.6682 14.9479 18.4762 15.4072 18.2304 15.8317L18.5215 16.1227C19.0912 16.6924 19.0912 17.6246 18.5215 18.1943C17.9518 18.764 17.0195 18.764 16.4499 18.1943L16.1588 17.9033C15.7344 18.149 15.275 18.341 14.79 18.4705V18.8818C14.79 19.6875 14.1309 20.3467 13.3252 20.3467C12.5195 20.3467 11.8604 19.6875 11.8604 18.8818V18.4705C11.3754 18.341 10.9161 18.1489 10.4916 17.9033L10.2005 18.1943C9.63081 18.764 8.69858 18.764 8.12891 18.1943C7.55923 17.6246 7.55923 16.6924 8.12891 16.1227L8.41992 15.8317C8.17417 15.4072 7.98223 14.9479 7.85273 14.4629H7.44141C6.63569 14.4629 5.97656 13.8038 5.97656 12.998C5.97656 12.1924 6.63569 11.5332 7.44141 11.5332H7.85273C7.98218 11.0482 8.17422 10.5889 8.41997 10.1644L8.12891 9.87339C7.55923 9.30371 7.55923 8.37148 8.12891 7.80176C8.69863 7.23208 9.63086 7.23208 10.2005 7.80176L10.4916 8.09282C10.916 7.84707 11.3754 7.65518 11.8604 7.52563V7.11426C11.8604 6.30859 12.5195 5.64941 13.3252 5.64941C14.1309 5.64941 14.79 6.30859 14.79 7.11426V7.52563Z" stroke="#FF8F51" stroke-width="1.46484" stroke-miterlimit="22.926" stroke-linecap="round" stroke-linejoin="round"/>
<path d="M13.3164 14.4629C14.1232 14.4629 14.7813 13.8048 14.7813 12.998C14.7813 12.1913 14.1232 11.5332 13.3164 11.5332C12.5096 11.5332 11.8516 12.1913 11.8516 12.998C11.8516 13.8048 12.5096 14.4629 13.3164 14.4629Z" stroke="#FF8F51" stroke-width="1.46484" stroke-miterlimit="22.926" stroke-linecap="round" stroke-linejoin="round"/>
</svg>
