<svg width="25" height="27" viewBox="0 0 25 27" fill="none" xmlns="http://www.w3.org/2000/svg">
<path d="M8.61719 13.1129L11.0436 15.5404C11.3484 15.8451 11.8424 15.8451 12.1471 15.5404L17 10.6865" stroke="#2E9865" stroke-width="1.6" stroke-linecap="round"/>
<path d="M12.5 0.798828C12.8194 0.798828 13.1269 0.910109 13.3711 1.11035L13.4717 1.20117L15.2227 2.95312C15.4825 3.21297 15.8539 3.33578 16.2227 3.27637L16.2217 3.27539L18.667 2.88965H18.668C18.9817 2.83965 19.3026 2.90081 19.5762 3.06055L19.6904 3.13574C19.9475 3.32386 20.1307 3.59428 20.2109 3.89941L20.2393 4.03223L20.626 6.47754V6.47949C20.6773 6.7975 20.8582 7.07778 21.123 7.25586L21.2412 7.32617L21.2432 7.32715L23.4492 8.4502C23.7336 8.59508 23.958 8.83439 24.085 9.12402L24.1328 9.25098C24.2312 9.55352 24.2203 9.88018 24.1055 10.1738L24.0498 10.2979V10.2988L22.9258 12.5059C22.7577 12.8355 22.7579 13.224 22.9258 13.5537V13.5547L24.0498 15.7617V15.7627C24.1944 16.0458 24.2354 16.3703 24.168 16.6787L24.1328 16.8096C24.0343 17.1125 23.8336 17.3712 23.5674 17.542L23.4492 17.6104L21.2432 18.7334L21.2412 18.7344C20.9533 18.8819 20.7436 19.1413 20.6562 19.4473L20.626 19.5811V19.583L20.2393 22.0283C20.1818 22.3872 19.9842 22.7098 19.6904 22.9248C19.4314 23.1126 19.1175 23.204 18.8027 23.1855L18.668 23.1709H18.667L16.2217 22.7842H16.2227C15.9 22.7322 15.5753 22.8197 15.3252 23.0166L15.2227 23.1074L13.4717 24.8594C13.2144 25.1166 12.8649 25.2617 12.5 25.2617C12.1806 25.2617 11.8731 25.1504 11.6289 24.9502L11.5283 24.8594L9.77734 23.1074L9.6748 23.0166C9.46027 22.8478 9.19089 22.7595 8.91504 22.7705L8.77734 22.7842L6.33301 23.1709H6.33203C6.01832 23.2209 5.69742 23.1597 5.42383 23L5.30957 22.9248C5.05253 22.7367 4.86934 22.4663 4.78906 22.1611L4.76074 22.0283L4.37402 19.583V19.5811L4.34375 19.4473C4.2689 19.185 4.10395 18.9573 3.87695 18.8047L3.75879 18.7344L3.75684 18.7334L1.55078 17.6104C1.26638 17.4655 1.04201 17.2261 0.915039 16.9365L0.867188 16.8096C0.768838 16.507 0.779743 16.1804 0.894531 15.8867L0.950195 15.7627V15.7617L2.07422 13.5547L2.07324 13.5537C2.24137 13.2238 2.24163 12.8357 2.07324 12.5059H2.07422L0.950195 10.2988V10.2979L0.894531 10.1738C0.796115 9.92207 0.774289 9.64617 0.832031 9.38184L0.867188 9.25098C0.965711 8.94804 1.16641 8.68935 1.43262 8.51855L1.55078 8.4502L3.75684 7.32715L3.75879 7.32617C4.04671 7.17867 4.25642 6.91922 4.34375 6.61328L4.37402 6.47949V6.47754L4.76074 4.03223C4.81816 3.67329 5.01577 3.35076 5.30957 3.13574C5.56865 2.94799 5.88254 2.85654 6.19727 2.875L6.33203 2.88965H6.33301L8.77734 3.27539V3.27637C9.10002 3.32836 9.42467 3.24081 9.6748 3.04395L9.77734 2.95312L11.5283 1.20117C11.7856 0.943941 12.1351 0.798828 12.5 0.798828Z" stroke="#2E9865" stroke-width="1.6"/>
</svg>
