<svg width="27" height="22" viewBox="0 0 27 22" fill="none" xmlns="http://www.w3.org/2000/svg">
<path fill-rule="evenodd" clip-rule="evenodd" d="M24.9287 7.06803C24.972 6.80681 24.8974 6.53957 24.7265 6.33733C24.5543 6.1363 24.3027 6.01953 24.0379 6.01953H2.36968C2.10485 6.01953 1.85325 6.1363 1.68111 6.33733C1.51017 6.53957 1.43554 6.80681 1.47887 7.06803C1.47887 7.06803 2.70915 14.5845 3.31465 18.291C3.57708 19.892 4.96024 21.0669 6.58174 21.0669H19.8258C21.4473 21.0669 22.8305 19.892 23.0929 18.291L24.9287 7.06803ZM22.975 7.82522L21.3101 17.9997C21.1909 18.7267 20.5626 19.2612 19.8258 19.2612C16.4901 19.2612 9.91744 19.2612 6.58174 19.2612C5.84502 19.2612 5.21664 18.7267 5.09747 17.9997L3.43263 7.82522H22.975Z" fill="white"/>
<path fill-rule="evenodd" clip-rule="evenodd" d="M21.2023 6.45709L17.5909 0.438142C17.3345 0.0107961 16.7795 -0.12764 16.3522 0.128768C15.9249 0.385175 15.7864 0.940122 16.0428 1.36747L19.6542 7.38642C19.9106 7.81376 20.4656 7.9522 20.8929 7.69579C21.3202 7.43938 21.4587 6.88444 21.2023 6.45709Z" fill="white"/>
<path fill-rule="evenodd" clip-rule="evenodd" d="M6.75887 7.38642L10.3702 1.36747C10.6267 0.940122 10.4882 0.385175 10.0609 0.128768C9.63352 -0.12764 9.07858 0.0107961 8.82217 0.438142L5.2108 6.45709C4.95439 6.88444 5.09283 7.43938 5.52017 7.69579C5.94752 7.9522 6.50247 7.81376 6.75887 7.38642Z" fill="white"/>
<path fill-rule="evenodd" clip-rule="evenodd" d="M12.3047 11.135V15.9502C12.3047 16.4486 12.7092 16.853 13.2075 16.853C13.7059 16.853 14.1104 16.4486 14.1104 15.9502V11.135C14.1104 10.6367 13.7059 10.2322 13.2075 10.2322C12.7092 10.2322 12.3047 10.6367 12.3047 11.135Z" fill="white"/>
<path fill-rule="evenodd" clip-rule="evenodd" d="M7.48828 11.1353V15.9504C7.48828 16.4488 7.89275 16.8533 8.39112 16.8533C8.88949 16.8533 9.29397 16.4488 9.29397 15.9504V11.1353C9.29397 10.6369 8.88949 10.2324 8.39112 10.2324C7.89275 10.2324 7.48828 10.6369 7.48828 11.1353Z" fill="white"/>
<path fill-rule="evenodd" clip-rule="evenodd" d="M17.1211 11.1353V15.9504C17.1211 16.4488 17.5256 16.8533 18.0239 16.8533C18.5223 16.8533 18.9268 16.4488 18.9268 15.9504V11.1353C18.9268 10.6369 18.5223 10.2324 18.0239 10.2324C17.5256 10.2324 17.1211 10.6369 17.1211 11.1353Z" fill="white"/>
<path fill-rule="evenodd" clip-rule="evenodd" d="M25.2443 6.01953H1.16847C0.670098 6.01953 0.265625 6.424 0.265625 6.92237C0.265625 7.42074 0.670098 7.82522 1.16847 7.82522H25.2443C25.7426 7.82522 26.1471 7.42074 26.1471 6.92237C26.1471 6.424 25.7426 6.01953 25.2443 6.01953Z" fill="white"/>
</svg>
