<svg width="23" height="26" viewBox="0 0 23 26" fill="none" xmlns="http://www.w3.org/2000/svg">
<path d="M7.09375 6.89062V5.0625C7.09375 2.81883 8.91258 1 11.1562 1C13.3999 1 15.2188 2.81883 15.2188 5.0625V6.89062M15.2188 10.9531C15.2188 13.1968 13.3999 15.0156 11.1562 15.0156C8.91258 15.0156 7.09375 13.1968 7.09375 10.9531M3.03125 6.89062H19.2812L21.2965 22.681C21.307 22.765 21.3125 22.8506 21.3125 22.9375C21.3125 24.0593 20.4031 24.9688 19.2812 24.9688H3.03125C1.90944 24.9688 1 24.0593 1 22.9375C1 22.8506 1.00543 22.765 1.01605 22.681L3.03125 6.89062Z" stroke="white" stroke-width="2" stroke-miterlimit="10" stroke-linecap="round" stroke-linejoin="round"/>
</svg>
