<svg width="26" height="24" viewBox="0 0 26 24" fill="none" xmlns="http://www.w3.org/2000/svg">
<path d="M16.8922 21.0344C19.1799 21.0344 21.0344 19.1799 21.0344 16.8922C21.0344 14.6045 19.1799 12.75 16.8922 12.75C14.6045 12.75 12.75 14.6045 12.75 16.8922C12.75 19.1799 14.6045 21.0344 16.8922 21.0344Z" stroke="white" stroke-width="2" stroke-miterlimit="10" stroke-linecap="round" stroke-linejoin="round"/>
<path d="M9.11095 11.2453C11.3986 11.2453 13.2532 9.39082 13.2532 7.10314C13.2532 4.81547 11.3986 2.96094 9.11095 2.96094C6.82328 2.96094 4.96875 4.81547 4.96875 7.10314C4.96875 9.39082 6.82328 11.2453 9.11095 11.2453Z" stroke="white" stroke-width="2" stroke-miterlimit="10" stroke-linecap="round" stroke-linejoin="round"/>
<path d="M24.2906 16.8945H22.0312" stroke="white" stroke-width="2" stroke-miterlimit="10" stroke-linecap="round" stroke-linejoin="round"/>
<path d="M1.70312 7.10156H3.9625" stroke="white" stroke-width="2" stroke-miterlimit="10" stroke-linecap="round" stroke-linejoin="round"/>
<path d="M12.7531 16.8945H1.70312" stroke="white" stroke-width="2" stroke-miterlimit="10" stroke-linecap="round" stroke-linejoin="round"/>
<path d="M13.2422 7.10156H24.2922" stroke="white" stroke-width="2" stroke-miterlimit="10" stroke-linecap="round" stroke-linejoin="round"/>
</svg>
