<svg width="24" height="25" viewBox="0 0 24 25" fill="none" xmlns="http://www.w3.org/2000/svg">
<path d="M17.955 24.6868H4.40171C1.97525 24.6868 0 22.7115 0 20.2851V12.8556C0 10.4283 1.97525 8.45386 4.40171 8.45386H17.955C19.6925 8.45386 21.2709 9.47963 21.9769 11.067L23.6292 14.7813C24.1339 15.9183 24.1339 17.2224 23.6292 18.3577L21.9769 22.0729C21.2709 23.6602 19.6925 24.686 17.955 24.686V24.6868ZM4.40171 10.0777C2.86955 10.0777 1.62305 11.3242 1.62305 12.8564V20.2859C1.62305 21.8181 2.86955 23.0646 4.40171 23.0646H17.955C19.0522 23.0646 20.0479 22.417 20.4934 21.4155L22.1457 17.7004C22.4654 16.983 22.4654 16.1609 22.1457 15.4427L20.4934 11.7284C20.0479 10.7261 19.0522 10.0785 17.955 10.0785H4.40171V10.0777Z" fill="#02274D"/>
<path d="M20.8634 8.14867C20.5274 8.16652 20.1971 7.98149 20.0802 7.66581C19.9066 7.19594 19.5373 6.81208 19.0545 6.62787L7.07068 2.03951C6.63002 1.87071 6.15041 1.8845 5.71868 2.07602C5.28857 2.26836 4.95747 2.61731 4.78867 3.05716L3.24109 7.09937C3.08122 7.51811 2.61216 7.72748 2.19341 7.5668C1.77467 7.40693 1.56529 6.93787 1.72598 6.51912L3.22324 2.60839C3.50484 1.87233 3.98932 1.21013 4.66288 0.800307C5.58234 0.240355 6.66897 0.14703 7.65092 0.522766L19.6355 5.11032C20.5485 5.46008 21.2496 6.1791 21.5889 7.06285C21.7836 7.56924 21.4063 8.11864 20.8642 8.14786L20.8634 8.14867Z" fill="#02274D"/>
<path d="M13.5921 12.7553L9.05521 19.4835C8.80467 19.855 8.90276 20.3594 9.27432 20.6099C9.64587 20.8604 10.1502 20.7623 10.4007 20.3908L14.9376 13.6626C15.1881 13.291 15.09 12.7867 14.7185 12.5362C14.3469 12.2856 13.8426 12.3837 13.5921 12.7553Z" fill="#02274D"/>
<path d="M15.4956 21.3623C15.0273 21.3623 14.5542 21.2276 14.1379 20.9468C13.5982 20.5841 13.233 20.0314 13.1081 19.3927C12.9839 18.7549 13.1154 18.1057 13.4789 17.5668C13.8425 17.0271 14.3952 16.6611 15.033 16.5362C15.6733 16.4153 16.3209 16.5451 16.8606 16.9078C17.3994 17.2706 17.7654 17.8233 17.8904 18.4619C18.0154 19.1006 17.8823 19.749 17.5187 20.2887C17.0488 20.9858 16.2787 21.3623 15.4956 21.3623ZM15.5013 18.1146C15.4493 18.1146 15.3966 18.1203 15.3446 18.1308C15.1312 18.1722 14.947 18.2939 14.8253 18.4741C14.7035 18.6543 14.6605 18.8701 14.7019 19.0835C14.7441 19.297 14.865 19.4804 15.0452 19.6021C15.4185 19.8521 15.9224 19.7547 16.174 19.383C16.2949 19.202 16.3396 18.9862 16.2974 18.7727C16.256 18.5593 16.1343 18.3759 15.9541 18.255C15.8178 18.1625 15.6619 18.1146 15.5013 18.1146Z" fill="#02274D"/>
<path d="M8.49499 16.6477C8.01456 16.6477 7.5455 16.5049 7.13812 16.2306C6.59926 15.867 6.23327 15.3152 6.10829 14.6765C5.98332 14.0379 6.11641 13.3895 6.47997 12.8498C7.23144 11.7356 8.74981 11.4418 9.86078 12.1908C10.9742 12.9415 11.2696 14.4582 10.5197 15.5716C10.1562 16.1113 9.60353 16.4773 8.96567 16.6023C8.80905 16.6323 8.6508 16.6477 8.49499 16.6477ZM8.50148 13.3992C8.24017 13.3992 7.98291 13.525 7.82629 13.7571C7.70537 13.9372 7.66074 14.1531 7.70294 14.3665C7.74433 14.5791 7.86606 14.7634 8.04621 14.8851C8.22718 15.006 8.44143 15.049 8.65567 15.0084C8.8691 14.9671 9.05332 14.8453 9.17504 14.6652C9.42581 14.2935 9.3268 13.7879 8.95512 13.5371C8.81554 13.4438 8.6581 13.3992 8.50148 13.3992Z" fill="#02274D"/>
</svg>
