<svg width="26" height="26" viewBox="0 0 26 26" fill="none" xmlns="http://www.w3.org/2000/svg">
<g clip-path="url(#clip0_1_19031)">
<path d="M23.6601 16.5742C25.7635 14.4708 25.7635 11.0605 23.6601 8.95706C21.5567 6.85365 18.1463 6.85365 16.0429 8.95706C13.9395 11.0605 13.9395 14.4708 16.0429 16.5742C18.1464 18.6776 21.5567 18.6776 23.6601 16.5742Z" stroke="#02274D" stroke-width="1.52285" stroke-miterlimit="10" stroke-linecap="round" stroke-linejoin="round"/>
<path d="M21.5895 12.7656C21.5895 13.7223 20.8139 14.4979 19.8572 14.4979C18.9005 14.4979 18.125 13.7223 18.125 12.7656" stroke="#02274D" stroke-width="1.52285" stroke-miterlimit="10" stroke-linecap="round" stroke-linejoin="round"/>
<path d="M6.88047 10.8348L1.88998 6.58702C-0.474244 4.59838 1.14998 0.834395 4.13218 0.774801C5.23411 0.744902 6.22361 1.22303 6.88047 1.98887C7.53722 1.22313 8.52652 0.745003 9.6283 0.77475C12.6147 0.834547 14.2347 4.60432 11.8696 6.59296L6.88047 10.8348Z" stroke="#02274D" stroke-width="1.52285" stroke-miterlimit="10" stroke-linecap="round" stroke-linejoin="round"/>
<path d="M4.11265 19.251H0.765625V25.2259H4.11265V19.251Z" stroke="#02274D" stroke-width="1.52285" stroke-miterlimit="10" stroke-linecap="round" stroke-linejoin="round"/>
<path d="M4.11719 25.2285H10.5057C11.5319 25.2285 12.4663 24.6372 12.9057 23.7097L14.2188 20.9381C14.8212 19.6664 13.8959 18.2003 12.4889 18.1968L10.0008 18.1893L10.4631 16.1971C10.6892 15.2227 10.0696 14.253 9.09041 14.0488H8.5364L7.48507 16.2682C7.16893 16.9356 6.6805 17.5066 6.07009 17.9222L4.11724 19.2519" stroke="#02274D" stroke-width="1.52285" stroke-miterlimit="10" stroke-linecap="round" stroke-linejoin="round"/>
</g>
<defs>
<clipPath id="clip0_1_19031">
<rect width="26" height="26" fill="white"/>
</clipPath>
</defs>
</svg>
