<svg width="26" height="26" viewBox="0 0 26 26" fill="none" xmlns="http://www.w3.org/2000/svg">
<g clip-path="url(#clip0_1_18988)">
<path d="M7.3125 17.875H4.0625C1.8226 17.875 0 16.0524 0 13.8125C0 11.5726 1.8226 9.75 4.0625 9.75H7.3125C7.76157 9.75 8.125 10.1138 8.125 10.5625V17.0625C8.125 17.5112 7.76157 17.875 7.3125 17.875ZM4.0625 11.375C2.71838 11.375 1.625 12.4684 1.625 13.8125C1.625 15.1566 2.71838 16.25 4.0625 16.25H6.5V11.375H4.0625Z" fill="#02274D"/>
<path d="M23.3253 11.1368C23.1959 11.1368 23.0658 11.1058 22.9468 11.0436L20.3125 9.65818L17.6782 11.0436C17.4053 11.1872 17.0736 11.1637 16.8221 10.9817C16.5722 10.8 16.4468 10.4917 16.4991 10.187L17.0021 7.25286L14.8701 5.17521C14.6487 4.95901 14.5694 4.63644 14.6647 4.34207C14.7607 4.04811 15.0146 3.83345 15.3208 3.78901L18.2661 3.3609L19.5841 0.69135C19.857 0.136738 20.7679 0.136738 21.0409 0.69135L22.3589 3.3609L25.3042 3.78901C25.6105 3.83345 25.8644 4.04803 25.9604 4.34207C26.0556 4.63644 25.9762 4.95901 25.7549 5.17521L23.6229 7.25286L24.1259 10.187C24.1783 10.4917 24.0529 10.8 23.8029 10.9817C23.6609 11.0844 23.4934 11.1368 23.3253 11.1368ZM20.3125 7.92764C20.4427 7.92764 20.5719 7.95859 20.691 8.02083L22.2462 8.83886L21.9494 7.10636C21.9042 6.84295 21.9915 6.57393 22.1827 6.38706L23.4419 5.16034L21.7027 4.90766C21.4377 4.86914 21.2092 4.70291 21.091 4.4633L20.3126 2.88672L19.5342 4.4633C19.416 4.70291 19.1874 4.86914 18.9225 4.90766L17.1832 5.16034L18.4425 6.38706C18.6337 6.57393 18.721 6.84287 18.6757 7.10636L18.379 8.83886L19.9342 8.02083C20.0532 7.95851 20.1824 7.92764 20.3125 7.92764Z" fill="#02274D"/>
<path d="M18.6915 21.5889C18.5018 21.5889 18.3114 21.556 18.1297 21.4886L7.05778 17.8339C6.72449 17.724 6.5 17.413 6.5 17.0623V10.5622C6.5 10.2115 6.72457 9.90044 7.05778 9.79059L14.9797 7.17418C15.4049 7.03256 15.8651 7.26542 16.0056 7.69109C16.1468 8.11717 15.9152 8.57655 15.4891 8.71744L8.125 11.1494V16.4747L18.666 19.9548L18.6875 11.9274C18.6875 11.4787 19.0509 11.1149 19.5 11.1149C19.9491 11.1149 20.3125 11.4787 20.3125 11.9274V19.9627C20.3125 20.4958 20.0523 20.9954 19.6167 21.2988C19.3413 21.4904 19.0176 21.5889 18.6915 21.5889Z" fill="#02274D"/>
<path d="M5.6875 26C4.34338 26 3.25 24.9066 3.25 23.5625V17.0625C3.25 16.6138 3.61343 16.25 4.0625 16.25H7.3125C7.76157 16.25 8.125 16.6138 8.125 17.0625V23.5625C8.125 24.9066 7.03162 26 5.6875 26ZM4.875 17.875V23.5625C4.875 24.0104 5.23916 24.375 5.6875 24.375C6.13584 24.375 6.5 24.0104 6.5 23.5625V17.875H4.875Z" fill="#02274D"/>
</g>
<defs>
<clipPath id="clip0_1_18988">
<rect width="26" height="26" fill="white"/>
</clipPath>
</defs>
</svg>
