<svg width="25" height="25" viewBox="0 0 25 25" fill="none" xmlns="http://www.w3.org/2000/svg">
<path d="M20.4898 8.62314C20.4898 8.62314 18.1281 9.72157 17.822 7.30216C17.5619 5.24648 16.1608 4.65503 16.1608 4.65503L15.3698 5.36349C14.3625 6.26572 12.9238 5.90039 12.3098 4.58226C11.9037 3.71068 11.5072 2.65005 11.2871 1.5C11.2871 1.5 6.98054 2.29702 6.41366 6.95518C6.23778 8.40059 5.08503 9.3706 3.90056 9.0506C3.09976 10.4599 2.63672 12.0815 2.63672 13.8183C2.63672 19.1654 6.9715 23.5 12.3187 23.5C17.6659 23.5 22.0007 19.1654 22.0007 13.8183C22.0007 11.9065 21.4463 10.1243 20.4898 8.62314Z" stroke="#02274D" stroke-width="2.01062" stroke-miterlimit="10"/>
</svg>
